<?xml version="1.0" encoding="utf-8" standalone="no"?>
<!DOCTYPE svg PUBLIC "-//W3C//DTD SVG 1.1//EN"
  "http://www.w3.org/Graphics/SVG/1.1/DTD/svg11.dtd">
<svg xmlns:xlink="http://www.w3.org/1999/xlink" width="576pt" height="360pt" viewBox="0 0 576 360" xmlns="http://www.w3.org/2000/svg" version="1.1">
 <metadata>
  <rdf:RDF xmlns:dc="http://purl.org/dc/elements/1.1/" xmlns:cc="http://creativecommons.org/ns#" xmlns:rdf="http://www.w3.org/1999/02/22-rdf-syntax-ns#">
   <cc:Work>
    <dc:type rdf:resource="http://purl.org/dc/dcmitype/StillImage"/>
    <dc:date>2024-08-05T08:45:08.568259</dc:date>
    <dc:format>image/svg+xml</dc:format>
    <dc:creator>
     <cc:Agent>
      <dc:title>Matplotlib v3.9.0, https://matplotlib.org/</dc:title>
     </cc:Agent>
    </dc:creator>
   </cc:Work>
  </rdf:RDF>
 </metadata>
 <defs>
  <style type="text/css">*{stroke-linejoin: round; stroke-linecap: butt}</style>
 </defs>
 <g id="figure_1">
  <g id="patch_1">
   <path d="M 0 360 
L 576 360 
L 576 0 
L 0 0 
z
" style="fill: #ffffff"/>
  </g>
  <g id="axes_1">
   <g id="patch_2">
    <path d="M 24.19 332.12 
L 565.2 332.12 
L 565.2 10.8 
L 24.19 10.8 
z
" style="fill: #ffffff"/>
   </g>
   <g id="PolyCollection_1">
    <path d="M 48.781364 60.316144 
L 48.781364 25.405455 
L 53.749316 176.112408 
L 58.717268 181.699927 
L 63.68522 184.757854 
L 68.653173 187.681949 
L 73.621125 171.505139 
L 78.589077 179.096871 
L 83.557029 192.279195 
L 88.524982 184.7687 
L 93.492934 189.32332 
L 98.460886 184.38865 
L 103.428838 192.646247 
L 108.396791 191.484221 
L 113.364743 191.473003 
L 118.332695 195.408903 
L 123.300647 173.74334 
L 128.2686 187.351834 
L 133.236552 196.676815 
L 138.204504 188.979684 
L 143.172456 170.691126 
L 148.140409 184.149713 
L 153.108361 176.623186 
L 158.076313 184.309698 
L 163.044265 191.957755 
L 168.012218 187.923804 
L 172.98017 203.944906 
L 177.948122 204.796237 
L 182.916074 207.697025 
L 187.884027 186.513893 
L 192.851979 208.910869 
L 197.819931 184.983382 
L 202.787883 205.290799 
L 207.755836 216.565756 
L 212.723788 215.142768 
L 217.69174 213.785808 
L 222.659692 214.176658 
L 227.627645 220.856013 
L 232.595597 223.496415 
L 237.563549 230.726895 
L 242.531501 229.290817 
L 247.499454 236.81317 
L 252.467406 243.893077 
L 257.435358 252.078096 
L 262.40331 244.969405 
L 267.371263 250.20312 
L 272.339215 253.348688 
L 277.307167 248.43426 
L 282.275119 259.133105 
L 287.243072 265.089157 
L 292.211024 254.496388 
L 297.178976 264.67867 
L 302.146928 258.969677 
L 307.114881 255.670313 
L 312.082833 263.672872 
L 317.050785 264.914153 
L 322.018737 271.077891 
L 326.98669 263.246305 
L 331.954642 267.477397 
L 336.922594 256.084627 
L 341.890546 262.923384 
L 346.858499 265.858148 
L 351.826451 266.528609 
L 356.794403 267.420635 
L 361.762355 273.886467 
L 366.730308 267.066231 
L 371.69826 268.513235 
L 376.666212 274.544196 
L 381.634164 270.218266 
L 386.602117 275.414618 
L 391.570069 269.073607 
L 396.538021 271.392091 
L 401.505973 267.318559 
L 406.473926 271.53223 
L 411.441878 274.716211 
L 416.40983 279.051655 
L 421.377782 273.564966 
L 426.345735 271.308079 
L 431.313687 274.375749 
L 436.281639 275.283433 
L 441.249591 280.370741 
L 446.217544 271.692796 
L 451.185496 279.632437 
L 456.153448 274.416356 
L 461.1214 281.615837 
L 466.089353 275.97218 
L 471.057305 274.988809 
L 476.025257 280.357301 
L 480.993209 279.565049 
L 485.961162 275.495023 
L 490.929114 276.098487 
L 495.897066 281.813121 
L 500.865018 279.853197 
L 505.832971 287.179641 
L 510.800923 278.886023 
L 515.768875 270.707651 
L 520.736827 277.989002 
L 525.70478 276.177232 
L 530.672732 278.038755 
L 535.640684 278.461544 
L 540.608636 279.333929 
L 540.608636 288.108265 
L 540.608636 288.108265 
L 535.640684 288.984035 
L 530.672732 284.486242 
L 525.70478 284.456783 
L 520.736827 288.826016 
L 515.768875 283.223036 
L 510.800923 286.425306 
L 505.832971 290.037441 
L 500.865018 283.166021 
L 495.897066 282.247703 
L 490.929114 284.908455 
L 485.961162 286.592847 
L 480.993209 285.988759 
L 476.025257 288.702981 
L 471.057305 279.455286 
L 466.089353 281.418886 
L 461.1214 285.639976 
L 456.153448 284.667144 
L 451.185496 284.492595 
L 446.217544 282.077567 
L 441.249591 284.028646 
L 436.281639 287.970258 
L 431.313687 283.933729 
L 426.345735 282.409294 
L 421.377782 280.107661 
L 416.40983 282.369712 
L 411.441878 277.493582 
L 406.473926 280.350466 
L 401.505973 281.106153 
L 396.538021 278.649003 
L 391.570069 279.792184 
L 386.602117 281.652609 
L 381.634164 274.92723 
L 376.666212 277.888496 
L 371.69826 273.856596 
L 366.730308 276.186051 
L 361.762355 281.489086 
L 356.794403 275.569604 
L 351.826451 272.378714 
L 346.858499 278.095074 
L 341.890546 275.212989 
L 336.922594 274.474237 
L 331.954642 268.324104 
L 326.98669 274.81694 
L 322.018737 275.913964 
L 317.050785 273.754156 
L 312.082833 274.643016 
L 307.114881 269.848009 
L 302.146928 267.571224 
L 297.178976 270.824901 
L 292.211024 264.561896 
L 287.243072 274.286717 
L 282.275119 267.352029 
L 277.307167 265.843055 
L 272.339215 263.753646 
L 267.371263 265.752259 
L 262.40331 252.656942 
L 257.435358 261.791579 
L 252.467406 261.289269 
L 247.499454 252.630755 
L 242.531501 254.024532 
L 237.563549 253.78773 
L 232.595597 250.679523 
L 227.627645 236.078545 
L 222.659692 243.786991 
L 217.69174 245.12401 
L 212.723788 242.102879 
L 207.755836 233.645616 
L 202.787883 235.651297 
L 197.819931 216.82105 
L 192.851979 216.775882 
L 187.884027 220.348492 
L 182.916074 212.081583 
L 177.948122 216.250457 
L 172.98017 213.501512 
L 168.012218 206.956018 
L 163.044265 201.683906 
L 158.076313 204.805177 
L 153.108361 201.542771 
L 148.140409 194.128878 
L 143.172456 206.848472 
L 138.204504 210.925299 
L 133.236552 211.766722 
L 128.2686 207.797352 
L 123.300647 191.410344 
L 118.332695 200.676211 
L 113.364743 199.721683 
L 108.396791 202.782053 
L 103.428838 198.82367 
L 98.460886 197.580629 
L 93.492934 196.351178 
L 88.524982 187.58947 
L 83.557029 202.456277 
L 78.589077 186.898341 
L 73.621125 187.740511 
L 68.653173 192.893116 
L 63.68522 205.293741 
L 58.717268 190.203532 
L 53.749316 193.814689 
L 48.781364 60.316144 
z
" clip-path="url(#pa421f29455)" style="fill: #1f77b4; fill-opacity: 0.25"/>
   </g>
   <g id="PolyCollection_2">
    <path d="M 48.781364 46.472267 
L 48.781364 30.457767 
L 53.749316 172.460259 
L 58.717268 186.082445 
L 63.68522 186.993773 
L 68.653173 173.177595 
L 73.621125 176.7197 
L 78.589077 185.699371 
L 83.557029 188.003129 
L 88.524982 175.532763 
L 93.492934 186.604384 
L 98.460886 177.178909 
L 103.428838 184.281608 
L 108.396791 177.002938 
L 113.364743 199.960862 
L 118.332695 181.87265 
L 123.300647 180.993129 
L 128.2686 194.030676 
L 133.236552 176.992168 
L 138.204504 176.520955 
L 143.172456 182.627232 
L 148.140409 188.282721 
L 153.108361 176.62917 
L 158.076313 196.52243 
L 163.044265 175.411333 
L 168.012218 177.706497 
L 172.98017 190.917501 
L 177.948122 191.840056 
L 182.916074 184.601682 
L 187.884027 201.842645 
L 192.851979 200.00604 
L 197.819931 190.39818 
L 202.787883 193.526332 
L 207.755836 189.314313 
L 212.723788 195.882884 
L 217.69174 185.179861 
L 222.659692 192.500346 
L 227.627645 203.536162 
L 232.595597 219.318549 
L 237.563549 209.67774 
L 242.531501 222.463289 
L 247.499454 206.378011 
L 252.467406 223.242595 
L 257.435358 221.751797 
L 262.40331 232.367162 
L 267.371263 227.548874 
L 272.339215 224.063298 
L 277.307167 229.214661 
L 282.275119 234.987785 
L 287.243072 244.368714 
L 292.211024 222.739877 
L 297.178976 229.0768 
L 302.146928 247.395891 
L 307.114881 241.270059 
L 312.082833 237.001386 
L 317.050785 244.696055 
L 322.018737 254.572515 
L 326.98669 250.306863 
L 331.954642 247.511648 
L 336.922594 245.931879 
L 341.890546 253.178153 
L 346.858499 241.573601 
L 351.826451 244.916778 
L 356.794403 249.782587 
L 361.762355 249.341953 
L 366.730308 253.839059 
L 371.69826 249.549881 
L 376.666212 242.263542 
L 381.634164 248.915247 
L 386.602117 247.196614 
L 391.570069 246.677715 
L 396.538021 248.149913 
L 401.505973 245.932021 
L 406.473926 253.538852 
L 411.441878 250.006058 
L 416.40983 246.813491 
L 421.377782 248.222095 
L 426.345735 255.169063 
L 431.313687 249.998069 
L 436.281639 248.450834 
L 441.249591 251.910582 
L 446.217544 260.818339 
L 451.185496 242.326769 
L 456.153448 273.141731 
L 461.1214 259.766104 
L 466.089353 252.399187 
L 471.057305 253.173116 
L 476.025257 255.314448 
L 480.993209 254.223237 
L 485.961162 251.179987 
L 490.929114 266.791985 
L 495.897066 259.811972 
L 500.865018 258.889017 
L 505.832971 253.714351 
L 510.800923 256.096624 
L 515.768875 249.339641 
L 520.736827 259.08159 
L 525.70478 253.671149 
L 530.672732 263.15137 
L 535.640684 253.553391 
L 540.608636 265.256465 
L 540.608636 304.432939 
L 540.608636 304.432939 
L 535.640684 303.324956 
L 530.672732 317.514545 
L 525.70478 303.057731 
L 520.736827 308.681784 
L 515.768875 305.490543 
L 510.800923 303.568108 
L 505.832971 309.862832 
L 500.865018 311.469968 
L 495.897066 306.978042 
L 490.929114 308.378674 
L 485.961162 305.846111 
L 480.993209 307.43279 
L 476.025257 302.154732 
L 471.057305 306.859944 
L 466.089353 306.980588 
L 461.1214 310.105385 
L 456.153448 309.114615 
L 451.185496 302.007958 
L 446.217544 304.053115 
L 441.249591 307.277572 
L 436.281639 302.961868 
L 431.313687 301.384254 
L 426.345735 298.254947 
L 421.377782 306.684058 
L 416.40983 304.610999 
L 411.441878 293.22922 
L 406.473926 300.663144 
L 401.505973 305.142324 
L 396.538021 301.433155 
L 391.570069 300.05407 
L 386.602117 304.060112 
L 381.634164 297.037736 
L 376.666212 300.5278 
L 371.69826 302.51428 
L 366.730308 295.461061 
L 361.762355 294.953787 
L 356.794403 299.693295 
L 351.826451 298.325129 
L 346.858499 295.890612 
L 341.890546 298.018333 
L 336.922594 292.344523 
L 331.954642 291.294423 
L 326.98669 292.719426 
L 322.018737 295.203365 
L 317.050785 295.672431 
L 312.082833 295.734948 
L 307.114881 286.550118 
L 302.146928 279.512774 
L 297.178976 280.679072 
L 292.211024 275.257892 
L 287.243072 275.145721 
L 282.275119 259.881077 
L 277.307167 264.628433 
L 272.339215 270.483061 
L 267.371263 258.279575 
L 262.40331 255.633075 
L 257.435358 241.24004 
L 252.467406 233.523839 
L 247.499454 232.926425 
L 242.531501 234.347801 
L 237.563549 223.970687 
L 232.595597 227.827244 
L 227.627645 231.190121 
L 222.659692 215.743621 
L 217.69174 215.969697 
L 212.723788 215.111541 
L 207.755836 219.111723 
L 202.787883 212.623591 
L 197.819931 219.892234 
L 192.851979 214.444529 
L 187.884027 211.40273 
L 182.916074 204.785481 
L 177.948122 197.35251 
L 172.98017 198.140796 
L 168.012218 198.510087 
L 163.044265 209.012251 
L 158.076313 217.179446 
L 153.108361 194.064656 
L 148.140409 195.990266 
L 143.172456 197.508477 
L 138.204504 200.918942 
L 133.236552 205.166472 
L 128.2686 205.712509 
L 123.300647 197.365318 
L 118.332695 196.752791 
L 113.364743 203.252785 
L 108.396791 204.366674 
L 103.428838 215.215503 
L 98.460886 188.80051 
L 93.492934 206.29583 
L 88.524982 203.607722 
L 83.557029 194.520808 
L 78.589077 191.785066 
L 73.621125 191.721779 
L 68.653173 181.194123 
L 63.68522 198.434336 
L 58.717268 194.306139 
L 53.749316 184.005581 
L 48.781364 46.472267 
z
" clip-path="url(#pa421f29455)" style="fill: #ff7f0e; fill-opacity: 0.25"/>
   </g>
   <g id="matplotlib.axis_1">
    <g id="xtick_1">
     <g id="line2d_1">
      <defs>
       <path id="m30957737a4" d="M 0 0 
L 0 3.5 
" style="stroke: #000000; stroke-width: 0.8"/>
      </defs>
      <g>
       <use xlink:href="#m30957737a4" x="48.781364" y="332.12" style="stroke: #000000; stroke-width: 0.8"/>
      </g>
     </g>
     <g id="text_1">
      <!-- 0 -->
      <g transform="translate(45.600114 346.718437) scale(0.1 -0.1)">
       <defs>
        <path id="DejaVuSans-30" d="M 2034 4250 
Q 1547 4250 1301 3770 
Q 1056 3291 1056 2328 
Q 1056 1369 1301 889 
Q 1547 409 2034 409 
Q 2525 409 2770 889 
Q 3016 1369 3016 2328 
Q 3016 3291 2770 3770 
Q 2525 4250 2034 4250 
z
M 2034 4750 
Q 2819 4750 3233 4129 
Q 3647 3509 3647 2328 
Q 3647 1150 3233 529 
Q 2819 -91 2034 -91 
Q 1250 -91 836 529 
Q 422 1150 422 2328 
Q 422 3509 836 4129 
Q 1250 4750 2034 4750 
z
" transform="scale(0.015625)"/>
       </defs>
       <use xlink:href="#DejaVuSans-30"/>
      </g>
     </g>
    </g>
    <g id="xtick_2">
     <g id="line2d_2">
      <g>
       <use xlink:href="#m30957737a4" x="115.020727" y="332.12" style="stroke: #000000; stroke-width: 0.8"/>
      </g>
     </g>
     <g id="text_2">
      <!-- 1000 -->
      <g transform="translate(102.295727 346.718437) scale(0.1 -0.1)">
       <defs>
        <path id="DejaVuSans-31" d="M 794 531 
L 1825 531 
L 1825 4091 
L 703 3866 
L 703 4441 
L 1819 4666 
L 2450 4666 
L 2450 531 
L 3481 531 
L 3481 0 
L 794 0 
L 794 531 
z
" transform="scale(0.015625)"/>
       </defs>
       <use xlink:href="#DejaVuSans-31"/>
       <use xlink:href="#DejaVuSans-30" x="63.623047"/>
       <use xlink:href="#DejaVuSans-30" x="127.246094"/>
       <use xlink:href="#DejaVuSans-30" x="190.869141"/>
      </g>
     </g>
    </g>
    <g id="xtick_3">
     <g id="line2d_3">
      <g>
       <use xlink:href="#m30957737a4" x="181.26009" y="332.12" style="stroke: #000000; stroke-width: 0.8"/>
      </g>
     </g>
     <g id="text_3">
      <!-- 2000 -->
      <g transform="translate(168.53509 346.718437) scale(0.1 -0.1)">
       <defs>
        <path id="DejaVuSans-32" d="M 1228 531 
L 3431 531 
L 3431 0 
L 469 0 
L 469 531 
Q 828 903 1448 1529 
Q 2069 2156 2228 2338 
Q 2531 2678 2651 2914 
Q 2772 3150 2772 3378 
Q 2772 3750 2511 3984 
Q 2250 4219 1831 4219 
Q 1534 4219 1204 4116 
Q 875 4013 500 3803 
L 500 4441 
Q 881 4594 1212 4672 
Q 1544 4750 1819 4750 
Q 2544 4750 2975 4387 
Q 3406 4025 3406 3419 
Q 3406 3131 3298 2873 
Q 3191 2616 2906 2266 
Q 2828 2175 2409 1742 
Q 1991 1309 1228 531 
z
" transform="scale(0.015625)"/>
       </defs>
       <use xlink:href="#DejaVuSans-32"/>
       <use xlink:href="#DejaVuSans-30" x="63.623047"/>
       <use xlink:href="#DejaVuSans-30" x="127.246094"/>
       <use xlink:href="#DejaVuSans-30" x="190.869141"/>
      </g>
     </g>
    </g>
    <g id="xtick_4">
     <g id="line2d_4">
      <g>
       <use xlink:href="#m30957737a4" x="247.499454" y="332.12" style="stroke: #000000; stroke-width: 0.8"/>
      </g>
     </g>
     <g id="text_4">
      <!-- 3000 -->
      <g transform="translate(234.774454 346.718437) scale(0.1 -0.1)">
       <defs>
        <path id="DejaVuSans-33" d="M 2597 2516 
Q 3050 2419 3304 2112 
Q 3559 1806 3559 1356 
Q 3559 666 3084 287 
Q 2609 -91 1734 -91 
Q 1441 -91 1130 -33 
Q 819 25 488 141 
L 488 750 
Q 750 597 1062 519 
Q 1375 441 1716 441 
Q 2309 441 2620 675 
Q 2931 909 2931 1356 
Q 2931 1769 2642 2001 
Q 2353 2234 1838 2234 
L 1294 2234 
L 1294 2753 
L 1863 2753 
Q 2328 2753 2575 2939 
Q 2822 3125 2822 3475 
Q 2822 3834 2567 4026 
Q 2313 4219 1838 4219 
Q 1578 4219 1281 4162 
Q 984 4106 628 3988 
L 628 4550 
Q 988 4650 1302 4700 
Q 1616 4750 1894 4750 
Q 2613 4750 3031 4423 
Q 3450 4097 3450 3541 
Q 3450 3153 3228 2886 
Q 3006 2619 2597 2516 
z
" transform="scale(0.015625)"/>
       </defs>
       <use xlink:href="#DejaVuSans-33"/>
       <use xlink:href="#DejaVuSans-30" x="63.623047"/>
       <use xlink:href="#DejaVuSans-30" x="127.246094"/>
       <use xlink:href="#DejaVuSans-30" x="190.869141"/>
      </g>
     </g>
    </g>
    <g id="xtick_5">
     <g id="line2d_5">
      <g>
       <use xlink:href="#m30957737a4" x="313.738817" y="332.12" style="stroke: #000000; stroke-width: 0.8"/>
      </g>
     </g>
     <g id="text_5">
      <!-- 4000 -->
      <g transform="translate(301.013817 346.718437) scale(0.1 -0.1)">
       <defs>
        <path id="DejaVuSans-34" d="M 2419 4116 
L 825 1625 
L 2419 1625 
L 2419 4116 
z
M 2253 4666 
L 3047 4666 
L 3047 1625 
L 3713 1625 
L 3713 1100 
L 3047 1100 
L 3047 0 
L 2419 0 
L 2419 1100 
L 313 1100 
L 313 1709 
L 2253 4666 
z
" transform="scale(0.015625)"/>
       </defs>
       <use xlink:href="#DejaVuSans-34"/>
       <use xlink:href="#DejaVuSans-30" x="63.623047"/>
       <use xlink:href="#DejaVuSans-30" x="127.246094"/>
       <use xlink:href="#DejaVuSans-30" x="190.869141"/>
      </g>
     </g>
    </g>
    <g id="xtick_6">
     <g id="line2d_6">
      <g>
       <use xlink:href="#m30957737a4" x="379.97818" y="332.12" style="stroke: #000000; stroke-width: 0.8"/>
      </g>
     </g>
     <g id="text_6">
      <!-- 5000 -->
      <g transform="translate(367.25318 346.718437) scale(0.1 -0.1)">
       <defs>
        <path id="DejaVuSans-35" d="M 691 4666 
L 3169 4666 
L 3169 4134 
L 1269 4134 
L 1269 2991 
Q 1406 3038 1543 3061 
Q 1681 3084 1819 3084 
Q 2600 3084 3056 2656 
Q 3513 2228 3513 1497 
Q 3513 744 3044 326 
Q 2575 -91 1722 -91 
Q 1428 -91 1123 -41 
Q 819 9 494 109 
L 494 744 
Q 775 591 1075 516 
Q 1375 441 1709 441 
Q 2250 441 2565 725 
Q 2881 1009 2881 1497 
Q 2881 1984 2565 2268 
Q 2250 2553 1709 2553 
Q 1456 2553 1204 2497 
Q 953 2441 691 2322 
L 691 4666 
z
" transform="scale(0.015625)"/>
       </defs>
       <use xlink:href="#DejaVuSans-35"/>
       <use xlink:href="#DejaVuSans-30" x="63.623047"/>
       <use xlink:href="#DejaVuSans-30" x="127.246094"/>
       <use xlink:href="#DejaVuSans-30" x="190.869141"/>
      </g>
     </g>
    </g>
    <g id="xtick_7">
     <g id="line2d_7">
      <g>
       <use xlink:href="#m30957737a4" x="446.217544" y="332.12" style="stroke: #000000; stroke-width: 0.8"/>
      </g>
     </g>
     <g id="text_7">
      <!-- 6000 -->
      <g transform="translate(433.492544 346.718437) scale(0.1 -0.1)">
       <defs>
        <path id="DejaVuSans-36" d="M 2113 2584 
Q 1688 2584 1439 2293 
Q 1191 2003 1191 1497 
Q 1191 994 1439 701 
Q 1688 409 2113 409 
Q 2538 409 2786 701 
Q 3034 994 3034 1497 
Q 3034 2003 2786 2293 
Q 2538 2584 2113 2584 
z
M 3366 4563 
L 3366 3988 
Q 3128 4100 2886 4159 
Q 2644 4219 2406 4219 
Q 1781 4219 1451 3797 
Q 1122 3375 1075 2522 
Q 1259 2794 1537 2939 
Q 1816 3084 2150 3084 
Q 2853 3084 3261 2657 
Q 3669 2231 3669 1497 
Q 3669 778 3244 343 
Q 2819 -91 2113 -91 
Q 1303 -91 875 529 
Q 447 1150 447 2328 
Q 447 3434 972 4092 
Q 1497 4750 2381 4750 
Q 2619 4750 2861 4703 
Q 3103 4656 3366 4563 
z
" transform="scale(0.015625)"/>
       </defs>
       <use xlink:href="#DejaVuSans-36"/>
       <use xlink:href="#DejaVuSans-30" x="63.623047"/>
       <use xlink:href="#DejaVuSans-30" x="127.246094"/>
       <use xlink:href="#DejaVuSans-30" x="190.869141"/>
      </g>
     </g>
    </g>
    <g id="xtick_8">
     <g id="line2d_8">
      <g>
       <use xlink:href="#m30957737a4" x="512.456907" y="332.12" style="stroke: #000000; stroke-width: 0.8"/>
      </g>
     </g>
     <g id="text_8">
      <!-- 7000 -->
      <g transform="translate(499.731907 346.718437) scale(0.1 -0.1)">
       <defs>
        <path id="DejaVuSans-37" d="M 525 4666 
L 3525 4666 
L 3525 4397 
L 1831 0 
L 1172 0 
L 2766 4134 
L 525 4134 
L 525 4666 
z
" transform="scale(0.015625)"/>
       </defs>
       <use xlink:href="#DejaVuSans-37"/>
       <use xlink:href="#DejaVuSans-30" x="63.623047"/>
       <use xlink:href="#DejaVuSans-30" x="127.246094"/>
       <use xlink:href="#DejaVuSans-30" x="190.869141"/>
      </g>
     </g>
    </g>
   </g>
   <g id="matplotlib.axis_2">
    <g id="ytick_1">
     <g id="line2d_9">
      <defs>
       <path id="m8cc4ec44a9" d="M 0 0 
L -3.5 0 
" style="stroke: #000000; stroke-width: 0.8"/>
      </defs>
      <g>
       <use xlink:href="#m8cc4ec44a9" x="24.19" y="312.953633" style="stroke: #000000; stroke-width: 0.8"/>
      </g>
     </g>
     <g id="text_9">
      <!-- 1 -->
      <g transform="translate(10.8275 316.752852) scale(0.1 -0.1)">
       <use xlink:href="#DejaVuSans-31"/>
      </g>
     </g>
    </g>
    <g id="ytick_2">
     <g id="line2d_10">
      <g>
       <use xlink:href="#m8cc4ec44a9" x="24.19" y="272.430136" style="stroke: #000000; stroke-width: 0.8"/>
      </g>
     </g>
     <g id="text_10">
      <!-- 2 -->
      <g transform="translate(10.8275 276.229354) scale(0.1 -0.1)">
       <use xlink:href="#DejaVuSans-32"/>
      </g>
     </g>
    </g>
    <g id="ytick_3">
     <g id="line2d_11">
      <g>
       <use xlink:href="#m8cc4ec44a9" x="24.19" y="231.906638" style="stroke: #000000; stroke-width: 0.8"/>
      </g>
     </g>
     <g id="text_11">
      <!-- 3 -->
      <g transform="translate(10.8275 235.705857) scale(0.1 -0.1)">
       <use xlink:href="#DejaVuSans-33"/>
      </g>
     </g>
    </g>
    <g id="ytick_4">
     <g id="line2d_12">
      <g>
       <use xlink:href="#m8cc4ec44a9" x="24.19" y="191.38314" style="stroke: #000000; stroke-width: 0.8"/>
      </g>
     </g>
     <g id="text_12">
      <!-- 4 -->
      <g transform="translate(10.8275 195.182359) scale(0.1 -0.1)">
       <use xlink:href="#DejaVuSans-34"/>
      </g>
     </g>
    </g>
    <g id="ytick_5">
     <g id="line2d_13">
      <g>
       <use xlink:href="#m8cc4ec44a9" x="24.19" y="150.859642" style="stroke: #000000; stroke-width: 0.8"/>
      </g>
     </g>
     <g id="text_13">
      <!-- 5 -->
      <g transform="translate(10.8275 154.658861) scale(0.1 -0.1)">
       <use xlink:href="#DejaVuSans-35"/>
      </g>
     </g>
    </g>
    <g id="ytick_6">
     <g id="line2d_14">
      <g>
       <use xlink:href="#m8cc4ec44a9" x="24.19" y="110.336144" style="stroke: #000000; stroke-width: 0.8"/>
      </g>
     </g>
     <g id="text_14">
      <!-- 6 -->
      <g transform="translate(10.8275 114.135363) scale(0.1 -0.1)">
       <use xlink:href="#DejaVuSans-36"/>
      </g>
     </g>
    </g>
    <g id="ytick_7">
     <g id="line2d_15">
      <g>
       <use xlink:href="#m8cc4ec44a9" x="24.19" y="69.812647" style="stroke: #000000; stroke-width: 0.8"/>
      </g>
     </g>
     <g id="text_15">
      <!-- 7 -->
      <g transform="translate(10.8275 73.611865) scale(0.1 -0.1)">
       <use xlink:href="#DejaVuSans-37"/>
      </g>
     </g>
    </g>
    <g id="ytick_8">
     <g id="line2d_16">
      <g>
       <use xlink:href="#m8cc4ec44a9" x="24.19" y="29.289149" style="stroke: #000000; stroke-width: 0.8"/>
      </g>
     </g>
     <g id="text_16">
      <!-- 8 -->
      <g transform="translate(10.8275 33.088368) scale(0.1 -0.1)">
       <defs>
        <path id="DejaVuSans-38" d="M 2034 2216 
Q 1584 2216 1326 1975 
Q 1069 1734 1069 1313 
Q 1069 891 1326 650 
Q 1584 409 2034 409 
Q 2484 409 2743 651 
Q 3003 894 3003 1313 
Q 3003 1734 2745 1975 
Q 2488 2216 2034 2216 
z
M 1403 2484 
Q 997 2584 770 2862 
Q 544 3141 544 3541 
Q 544 4100 942 4425 
Q 1341 4750 2034 4750 
Q 2731 4750 3128 4425 
Q 3525 4100 3525 3541 
Q 3525 3141 3298 2862 
Q 3072 2584 2669 2484 
Q 3125 2378 3379 2068 
Q 3634 1759 3634 1313 
Q 3634 634 3220 271 
Q 2806 -91 2034 -91 
Q 1263 -91 848 271 
Q 434 634 434 1313 
Q 434 1759 690 2068 
Q 947 2378 1403 2484 
z
M 1172 3481 
Q 1172 3119 1398 2916 
Q 1625 2713 2034 2713 
Q 2441 2713 2670 2916 
Q 2900 3119 2900 3481 
Q 2900 3844 2670 4047 
Q 2441 4250 2034 4250 
Q 1625 4250 1398 4047 
Q 1172 3844 1172 3481 
z
" transform="scale(0.015625)"/>
       </defs>
       <use xlink:href="#DejaVuSans-38"/>
      </g>
     </g>
    </g>
   </g>
   <g id="line2d_17">
    <path d="M 48.781364 42.860799 
L 53.749316 184.963549 
L 58.717268 185.95173 
L 63.68522 195.025797 
L 68.653173 190.287533 
L 73.621125 179.622825 
L 78.589077 182.997606 
L 83.557029 197.367736 
L 88.524982 186.179085 
L 93.492934 192.837249 
L 98.460886 190.98464 
L 103.428838 195.734959 
L 108.396791 197.133137 
L 113.364743 195.597343 
L 118.332695 198.042557 
L 123.300647 182.576842 
L 128.2686 197.574593 
L 133.236552 204.221768 
L 138.204504 199.952491 
L 143.172456 188.769799 
L 148.140409 189.139295 
L 153.108361 189.082978 
L 158.076313 194.557437 
L 163.044265 196.820831 
L 168.012218 197.439911 
L 172.98017 208.723209 
L 177.948122 210.523347 
L 182.916074 209.889304 
L 187.884027 203.431192 
L 192.851979 212.843376 
L 197.819931 200.902216 
L 202.787883 220.471048 
L 207.755836 225.105686 
L 212.723788 228.622824 
L 217.69174 229.454909 
L 222.659692 228.981824 
L 227.627645 228.467279 
L 232.595597 237.087969 
L 237.563549 242.257313 
L 242.531501 241.657675 
L 247.499454 244.721962 
L 252.467406 252.591173 
L 257.435358 256.934837 
L 262.40331 248.813174 
L 267.371263 257.97769 
L 272.339215 258.551167 
L 277.307167 257.138658 
L 282.275119 263.242567 
L 287.243072 269.687937 
L 292.211024 259.529142 
L 297.178976 267.751785 
L 302.146928 263.27045 
L 307.114881 262.759161 
L 312.082833 269.157944 
L 317.050785 269.334155 
L 322.018737 273.495928 
L 326.98669 269.031623 
L 331.954642 267.90075 
L 336.922594 265.279432 
L 341.890546 269.068187 
L 346.858499 271.976611 
L 351.826451 269.453662 
L 356.794403 271.495119 
L 361.762355 277.687777 
L 366.730308 271.626141 
L 371.69826 271.184916 
L 376.666212 276.216346 
L 381.634164 272.572748 
L 386.602117 278.533614 
L 391.570069 274.432895 
L 396.538021 275.020547 
L 401.505973 274.212356 
L 406.473926 275.941348 
L 411.441878 276.104897 
L 416.40983 280.710684 
L 421.377782 276.836313 
L 426.345735 276.858686 
L 431.313687 279.154739 
L 436.281639 281.626846 
L 441.249591 282.199694 
L 446.217544 276.885182 
L 451.185496 282.062516 
L 456.153448 279.54175 
L 461.1214 283.627907 
L 466.089353 278.695533 
L 471.057305 277.222048 
L 476.025257 284.530141 
L 480.993209 282.776904 
L 485.961162 281.043935 
L 490.929114 280.503471 
L 495.897066 282.030412 
L 500.865018 281.509609 
L 505.832971 288.608541 
L 510.800923 282.655664 
L 515.768875 276.965344 
L 520.736827 283.407509 
L 525.70478 280.317008 
L 530.672732 281.262499 
L 535.640684 283.722789 
L 540.608636 283.721097 
" clip-path="url(#pa421f29455)" style="fill: none; stroke: #1f77b4; stroke-width: 1.5; stroke-linecap: square"/>
   </g>
   <g id="line2d_18">
    <path d="M 48.781364 38.465017 
L 53.749316 178.23292 
L 58.717268 190.194292 
L 63.68522 192.714055 
L 68.653173 177.185859 
L 73.621125 184.22074 
L 78.589077 188.742218 
L 83.557029 191.261968 
L 88.524982 189.570243 
L 93.492934 196.450107 
L 98.460886 182.989709 
L 103.428838 199.748555 
L 108.396791 190.684806 
L 113.364743 201.606823 
L 118.332695 189.31272 
L 123.300647 189.179223 
L 128.2686 199.871592 
L 133.236552 191.07932 
L 138.204504 188.719949 
L 143.172456 190.067855 
L 148.140409 192.136493 
L 153.108361 185.346913 
L 158.076313 206.850938 
L 163.044265 192.211792 
L 168.012218 188.108292 
L 172.98017 194.529148 
L 177.948122 194.596283 
L 182.916074 194.693582 
L 187.884027 206.622687 
L 192.851979 207.225285 
L 197.819931 205.145207 
L 202.787883 203.074961 
L 207.755836 204.213018 
L 212.723788 205.497213 
L 217.69174 200.574779 
L 222.659692 204.121984 
L 227.627645 217.363141 
L 232.595597 223.572896 
L 237.563549 216.824213 
L 242.531501 228.405545 
L 247.499454 219.652218 
L 252.467406 228.383217 
L 257.435358 231.495919 
L 262.40331 244.000119 
L 267.371263 242.914224 
L 272.339215 247.27318 
L 277.307167 246.921547 
L 282.275119 247.434431 
L 287.243072 259.757218 
L 292.211024 248.998885 
L 297.178976 254.877936 
L 302.146928 263.454332 
L 307.114881 263.910089 
L 312.082833 266.368167 
L 317.050785 270.184243 
L 322.018737 274.88794 
L 326.98669 271.513145 
L 331.954642 269.403035 
L 336.922594 269.138201 
L 341.890546 275.598243 
L 346.858499 268.732106 
L 351.826451 271.620953 
L 356.794403 274.737941 
L 361.762355 272.14787 
L 366.730308 274.65006 
L 371.69826 276.032081 
L 376.666212 271.395671 
L 381.634164 272.976492 
L 386.602117 275.628363 
L 391.570069 273.365893 
L 396.538021 274.791534 
L 401.505973 275.537172 
L 406.473926 277.100998 
L 411.441878 271.617639 
L 416.40983 275.712245 
L 421.377782 277.453077 
L 426.345735 276.712005 
L 431.313687 275.691162 
L 436.281639 275.706351 
L 441.249591 279.594077 
L 446.217544 282.435727 
L 451.185496 272.167364 
L 456.153448 291.128173 
L 461.1214 284.935745 
L 466.089353 279.689887 
L 471.057305 280.01653 
L 476.025257 278.73459 
L 480.993209 280.828014 
L 485.961162 278.513049 
L 490.929114 287.585329 
L 495.897066 283.395007 
L 500.865018 285.179493 
L 505.832971 281.788591 
L 510.800923 279.832366 
L 515.768875 277.415092 
L 520.736827 283.881687 
L 525.70478 278.36444 
L 530.672732 290.332958 
L 535.640684 278.439173 
L 540.608636 284.844702 
" clip-path="url(#pa421f29455)" style="fill: none; stroke: #ff7f0e; stroke-width: 1.5; stroke-linecap: square"/>
   </g>
   <g id="patch_3">
    <path d="M 24.19 332.12 
L 24.19 10.8 
" style="fill: none; stroke: #000000; stroke-width: 0.8; stroke-linejoin: miter; stroke-linecap: square"/>
   </g>
   <g id="patch_4">
    <path d="M 565.2 332.12 
L 565.2 10.8 
" style="fill: none; stroke: #000000; stroke-width: 0.8; stroke-linejoin: miter; stroke-linecap: square"/>
   </g>
   <g id="patch_5">
    <path d="M 24.19 332.12 
L 565.2 332.12 
" style="fill: none; stroke: #000000; stroke-width: 0.8; stroke-linejoin: miter; stroke-linecap: square"/>
   </g>
   <g id="patch_6">
    <path d="M 24.19 10.8 
L 565.2 10.8 
" style="fill: none; stroke: #000000; stroke-width: 0.8; stroke-linejoin: miter; stroke-linecap: square"/>
   </g>
   <g id="legend_1">
    <g id="patch_7">
     <path d="M 400.265625 33.478125 
L 558.2 33.478125 
Q 560.2 33.478125 560.2 31.478125 
L 560.2 17.8 
Q 560.2 15.8 558.2 15.8 
L 400.265625 15.8 
Q 398.265625 15.8 398.265625 17.8 
L 398.265625 31.478125 
Q 398.265625 33.478125 400.265625 33.478125 
z
" style="fill: #ffffff; opacity: 0.8; stroke: #cccccc; stroke-linejoin: miter"/>
    </g>
    <g id="line2d_19">
     <path d="M 402.265625 23.898438 
L 412.265625 23.898438 
L 422.265625 23.898438 
" style="fill: none; stroke: #1f77b4; stroke-width: 1.5; stroke-linecap: square"/>
    </g>
    <g id="text_17">
     <!-- Default -->
     <g transform="translate(430.265625 27.398438) scale(0.1 -0.1)">
      <defs>
       <path id="DejaVuSans-44" d="M 1259 4147 
L 1259 519 
L 2022 519 
Q 2988 519 3436 956 
Q 3884 1394 3884 2338 
Q 3884 3275 3436 3711 
Q 2988 4147 2022 4147 
L 1259 4147 
z
M 628 4666 
L 1925 4666 
Q 3281 4666 3915 4102 
Q 4550 3538 4550 2338 
Q 4550 1131 3912 565 
Q 3275 0 1925 0 
L 628 0 
L 628 4666 
z
" transform="scale(0.015625)"/>
       <path id="DejaVuSans-65" d="M 3597 1894 
L 3597 1613 
L 953 1613 
Q 991 1019 1311 708 
Q 1631 397 2203 397 
Q 2534 397 2845 478 
Q 3156 559 3463 722 
L 3463 178 
Q 3153 47 2828 -22 
Q 2503 -91 2169 -91 
Q 1331 -91 842 396 
Q 353 884 353 1716 
Q 353 2575 817 3079 
Q 1281 3584 2069 3584 
Q 2775 3584 3186 3129 
Q 3597 2675 3597 1894 
z
M 3022 2063 
Q 3016 2534 2758 2815 
Q 2500 3097 2075 3097 
Q 1594 3097 1305 2825 
Q 1016 2553 972 2059 
L 3022 2063 
z
" transform="scale(0.015625)"/>
       <path id="DejaVuSans-66" d="M 2375 4863 
L 2375 4384 
L 1825 4384 
Q 1516 4384 1395 4259 
Q 1275 4134 1275 3809 
L 1275 3500 
L 2222 3500 
L 2222 3053 
L 1275 3053 
L 1275 0 
L 697 0 
L 697 3053 
L 147 3053 
L 147 3500 
L 697 3500 
L 697 3744 
Q 697 4328 969 4595 
Q 1241 4863 1831 4863 
L 2375 4863 
z
" transform="scale(0.015625)"/>
       <path id="DejaVuSans-61" d="M 2194 1759 
Q 1497 1759 1228 1600 
Q 959 1441 959 1056 
Q 959 750 1161 570 
Q 1363 391 1709 391 
Q 2188 391 2477 730 
Q 2766 1069 2766 1631 
L 2766 1759 
L 2194 1759 
z
M 3341 1997 
L 3341 0 
L 2766 0 
L 2766 531 
Q 2569 213 2275 61 
Q 1981 -91 1556 -91 
Q 1019 -91 701 211 
Q 384 513 384 1019 
Q 384 1609 779 1909 
Q 1175 2209 1959 2209 
L 2766 2209 
L 2766 2266 
Q 2766 2663 2505 2880 
Q 2244 3097 1772 3097 
Q 1472 3097 1187 3025 
Q 903 2953 641 2809 
L 641 3341 
Q 956 3463 1253 3523 
Q 1550 3584 1831 3584 
Q 2591 3584 2966 3190 
Q 3341 2797 3341 1997 
z
" transform="scale(0.015625)"/>
       <path id="DejaVuSans-75" d="M 544 1381 
L 544 3500 
L 1119 3500 
L 1119 1403 
Q 1119 906 1312 657 
Q 1506 409 1894 409 
Q 2359 409 2629 706 
Q 2900 1003 2900 1516 
L 2900 3500 
L 3475 3500 
L 3475 0 
L 2900 0 
L 2900 538 
Q 2691 219 2414 64 
Q 2138 -91 1772 -91 
Q 1169 -91 856 284 
Q 544 659 544 1381 
z
M 1991 3584 
L 1991 3584 
z
" transform="scale(0.015625)"/>
       <path id="DejaVuSans-6c" d="M 603 4863 
L 1178 4863 
L 1178 0 
L 603 0 
L 603 4863 
z
" transform="scale(0.015625)"/>
       <path id="DejaVuSans-74" d="M 1172 4494 
L 1172 3500 
L 2356 3500 
L 2356 3053 
L 1172 3053 
L 1172 1153 
Q 1172 725 1289 603 
Q 1406 481 1766 481 
L 2356 481 
L 2356 0 
L 1766 0 
Q 1100 0 847 248 
Q 594 497 594 1153 
L 594 3053 
L 172 3053 
L 172 3500 
L 594 3500 
L 594 4494 
L 1172 4494 
z
" transform="scale(0.015625)"/>
      </defs>
      <use xlink:href="#DejaVuSans-44"/>
      <use xlink:href="#DejaVuSans-65" x="77.001953"/>
      <use xlink:href="#DejaVuSans-66" x="138.525391"/>
      <use xlink:href="#DejaVuSans-61" x="173.730469"/>
      <use xlink:href="#DejaVuSans-75" x="235.009766"/>
      <use xlink:href="#DejaVuSans-6c" x="298.388672"/>
      <use xlink:href="#DejaVuSans-74" x="326.171875"/>
     </g>
    </g>
    <g id="line2d_20">
     <path d="M 486.803125 23.898438 
L 496.803125 23.898438 
L 506.803125 23.898438 
" style="fill: none; stroke: #ff7f0e; stroke-width: 1.5; stroke-linecap: square"/>
    </g>
    <g id="text_18">
     <!-- Random -->
     <g transform="translate(514.803125 27.398438) scale(0.1 -0.1)">
      <defs>
       <path id="DejaVuSans-52" d="M 2841 2188 
Q 3044 2119 3236 1894 
Q 3428 1669 3622 1275 
L 4263 0 
L 3584 0 
L 2988 1197 
Q 2756 1666 2539 1819 
Q 2322 1972 1947 1972 
L 1259 1972 
L 1259 0 
L 628 0 
L 628 4666 
L 2053 4666 
Q 2853 4666 3247 4331 
Q 3641 3997 3641 3322 
Q 3641 2881 3436 2590 
Q 3231 2300 2841 2188 
z
M 1259 4147 
L 1259 2491 
L 2053 2491 
Q 2509 2491 2742 2702 
Q 2975 2913 2975 3322 
Q 2975 3731 2742 3939 
Q 2509 4147 2053 4147 
L 1259 4147 
z
" transform="scale(0.015625)"/>
       <path id="DejaVuSans-6e" d="M 3513 2113 
L 3513 0 
L 2938 0 
L 2938 2094 
Q 2938 2591 2744 2837 
Q 2550 3084 2163 3084 
Q 1697 3084 1428 2787 
Q 1159 2491 1159 1978 
L 1159 0 
L 581 0 
L 581 3500 
L 1159 3500 
L 1159 2956 
Q 1366 3272 1645 3428 
Q 1925 3584 2291 3584 
Q 2894 3584 3203 3211 
Q 3513 2838 3513 2113 
z
" transform="scale(0.015625)"/>
       <path id="DejaVuSans-64" d="M 2906 2969 
L 2906 4863 
L 3481 4863 
L 3481 0 
L 2906 0 
L 2906 525 
Q 2725 213 2448 61 
Q 2172 -91 1784 -91 
Q 1150 -91 751 415 
Q 353 922 353 1747 
Q 353 2572 751 3078 
Q 1150 3584 1784 3584 
Q 2172 3584 2448 3432 
Q 2725 3281 2906 2969 
z
M 947 1747 
Q 947 1113 1208 752 
Q 1469 391 1925 391 
Q 2381 391 2643 752 
Q 2906 1113 2906 1747 
Q 2906 2381 2643 2742 
Q 2381 3103 1925 3103 
Q 1469 3103 1208 2742 
Q 947 2381 947 1747 
z
" transform="scale(0.015625)"/>
       <path id="DejaVuSans-6f" d="M 1959 3097 
Q 1497 3097 1228 2736 
Q 959 2375 959 1747 
Q 959 1119 1226 758 
Q 1494 397 1959 397 
Q 2419 397 2687 759 
Q 2956 1122 2956 1747 
Q 2956 2369 2687 2733 
Q 2419 3097 1959 3097 
z
M 1959 3584 
Q 2709 3584 3137 3096 
Q 3566 2609 3566 1747 
Q 3566 888 3137 398 
Q 2709 -91 1959 -91 
Q 1206 -91 779 398 
Q 353 888 353 1747 
Q 353 2609 779 3096 
Q 1206 3584 1959 3584 
z
" transform="scale(0.015625)"/>
       <path id="DejaVuSans-6d" d="M 3328 2828 
Q 3544 3216 3844 3400 
Q 4144 3584 4550 3584 
Q 5097 3584 5394 3201 
Q 5691 2819 5691 2113 
L 5691 0 
L 5113 0 
L 5113 2094 
Q 5113 2597 4934 2840 
Q 4756 3084 4391 3084 
Q 3944 3084 3684 2787 
Q 3425 2491 3425 1978 
L 3425 0 
L 2847 0 
L 2847 2094 
Q 2847 2600 2669 2842 
Q 2491 3084 2119 3084 
Q 1678 3084 1418 2786 
Q 1159 2488 1159 1978 
L 1159 0 
L 581 0 
L 581 3500 
L 1159 3500 
L 1159 2956 
Q 1356 3278 1631 3431 
Q 1906 3584 2284 3584 
Q 2666 3584 2933 3390 
Q 3200 3197 3328 2828 
z
" transform="scale(0.015625)"/>
      </defs>
      <use xlink:href="#DejaVuSans-52"/>
      <use xlink:href="#DejaVuSans-61" x="67.232422"/>
      <use xlink:href="#DejaVuSans-6e" x="128.511719"/>
      <use xlink:href="#DejaVuSans-64" x="191.890625"/>
      <use xlink:href="#DejaVuSans-6f" x="255.367188"/>
      <use xlink:href="#DejaVuSans-6d" x="316.548828"/>
     </g>
    </g>
   </g>
  </g>
 </g>
 <defs>
  <clipPath id="pa421f29455">
   <rect x="24.19" y="10.8" width="541.01" height="321.32"/>
  </clipPath>
 </defs>
</svg>
